<svg width="353" height="353" viewBox="0 0 353 353" fill="none" xmlns="http://www.w3.org/2000/svg">
<path fill-rule="evenodd" clip-rule="evenodd" d="M170.6 1.04699C163.637 1.30099 152.323 2.48699 146.2 3.60499C141.68 4.42899 137.685 5.26999 135.8 5.79299C134.7 6.09899 132.63 6.64299 131.2 7.00399C125.289 8.49499 117.817 10.986 110.6 13.872C94.404 20.347 81.774 27.865 64.2 41.49C57.363 46.791 42.823 62.138 36.293 70.948C34.804 72.957 33.18 75.14 32.684 75.8C31.282 77.668 26.481 85.031 25.383 87C25.137 87.44 24.02 89.42 22.9 91.4C17.182 101.51 13.28 110.845 7.94301 127.176C7.41301 128.797 5.60501 135.76 5.34001 137.2C5.16701 138.138 4.62101 140.744 3.62001 145.4C3.38401 146.5 3.01101 148.75 2.79201 150.4C-0.0199888 171.59 0.172012 187.933 3.45401 206.8C4.27101 211.501 6.13601 220.064 6.76301 222C6.94101 222.55 7.37501 223.99 7.72601 225.2C12.385 241.251 20.654 259.763 28.006 270.6C28.603 271.48 29.924 273.46 30.941 275C37.126 284.36 43.006 291.427 52.438 300.834C59.189 307.567 65.734 313.423 68.943 315.6C69.429 315.93 71.261 317.292 73.014 318.626C74.766 319.961 77.28 321.748 78.6 322.597C79.92 323.446 82.17 324.896 83.6 325.818C85.03 326.74 87.19 328.041 88.4 328.708C89.61 329.376 91.695 330.543 93.034 331.302C101.66 336.193 121.557 344.212 129.6 346.038C130.37 346.213 132.17 346.646 133.6 347.001C135.03 347.356 136.65 347.737 137.2 347.848C137.75 347.959 139.28 348.301 140.6 348.609C155.607 352.104 176.634 353.315 192.8 351.613C203.657 350.471 207.972 349.723 219.6 346.972C221.03 346.633 222.83 346.213 223.6 346.038C233.488 343.793 254.294 335.013 264.6 328.738C265.26 328.336 266.07 327.888 266.4 327.742C266.959 327.496 270.7 325.148 273.36 323.374C273.999 322.948 275.061 322.274 275.721 321.874C276.932 321.142 286.318 314.068 287.8 312.77C288.24 312.385 290.04 310.844 291.8 309.346C296.095 305.69 307.037 294.638 310.655 290.3C314.688 285.465 319.538 279.106 321.867 275.6C325.622 269.947 327.922 266.218 329.639 263C330.343 261.68 331.297 259.97 331.759 259.2C332.625 257.758 332.949 257.118 335.403 252C339.662 243.116 344.525 229.504 346.789 220.124C347.47 217.306 348.192 214.37 348.394 213.6C348.749 212.246 348.955 211.105 350.238 203.4C352.538 189.584 353.025 174.17 351.586 160.8C350.381 149.614 349.117 142.215 347.007 134C346.64 132.57 346.188 130.77 346.002 130C345.239 126.833 340.989 114.034 339.826 111.4C339.535 110.74 338.524 108.4 337.581 106.2C334.135 98.162 326.54 84.339 322.167 78.147C318.938 73.575 314.498 67.619 313.227 66.158C312.442 65.254 310.9 63.393 309.8 62.022C307.357 58.977 292.193 43.984 289.333 41.788C288.196 40.914 285.856 39.108 284.133 37.774C280.507 34.966 272.508 29.2 272.239 29.2C272.139 29.2 271.009 28.518 269.728 27.684C268.448 26.85 266.95 25.948 266.4 25.679C265.85 25.409 264.5 24.626 263.4 23.938C259.821 21.7 248.334 16.137 242.6 13.866C235.648 11.113 227.382 8.35999 222 7.00599C220.57 6.64599 218.41 6.09699 217.2 5.78499C210.057 3.94599 200.847 2.45199 191.6 1.62999C186.457 1.17299 175.482 0.868989 170.6 1.04699ZM192.2 10.415C201.146 11.318 205.508 11.876 206.4 12.232C206.73 12.364 207.99 12.625 209.2 12.813C212.514 13.328 217.389 14.492 223.4 16.203C224.72 16.579 226.34 17.031 227 17.209C234.324 19.182 251.276 26.47 258.6 30.795C259.7 31.444 261.32 32.366 262.2 32.843C263.08 33.321 265.13 34.586 266.755 35.656C268.381 36.725 269.771 37.6 269.845 37.6C270.196 37.6 280.993 45.656 284 48.162C295.898 58.077 308.62 72.09 315.863 83.258C316.484 84.216 317.096 85.09 317.223 85.2C317.555 85.487 322 92.749 322 93.004C322 93.12 322.445 93.921 322.989 94.783C327.81 102.419 335.085 119.718 338.388 131.4C345.213 155.537 346.542 183.912 341.956 207.6C340.879 213.166 339.381 219.789 338.79 221.6C338.611 222.15 338.159 223.68 337.785 225C337.071 227.528 336.129 230.457 335.6 231.8C335.427 232.24 334.979 233.5 334.605 234.6C332.436 240.983 326.036 254.791 323.066 259.496C322.48 260.424 322 261.277 322 261.391C322 261.711 316.585 270.304 314.685 273C312.86 275.59 307.988 282.073 307.622 282.4C307.498 282.51 306.117 284.13 304.551 286C295.771 296.488 279.962 310.465 269.384 317.091C268.953 317.361 267.07 318.547 265.2 319.727C259.72 323.184 250.078 328.316 245.2 330.372C243.99 330.882 242.28 331.633 241.4 332.04C239.586 332.881 234.606 334.764 233.4 335.066C232.96 335.177 232.24 335.413 231.8 335.591C230.281 336.207 224.645 337.974 221 338.977C215.935 340.372 214.069 340.784 206.6 342.158C190.152 345.185 169.35 345.581 153.8 343.164C148.451 342.332 144.183 341.574 141.2 340.926C133.302 339.21 118.928 334.745 113.8 332.414C110.032 330.702 107.516 329.6 107.375 329.6C106.756 329.6 96.357 324.171 93.2 322.2C92.43 321.719 91.597 321.252 91.349 321.163C90.124 320.721 82.125 315.351 77.4 311.8C55.721 295.506 39.2 275.95 27.554 252.8C24.83 247.385 22.4 242.036 22.4 241.456C22.4 241.183 22.25 240.789 22.066 240.58C21.882 240.371 21.41 239.3 21.015 238.2C20.621 237.1 20.069 235.66 19.789 235C19.121 233.428 17.457 228.426 16.596 225.4C16.22 224.08 15.677 222.19 15.39 221.2C13.971 216.303 12.746 210.5 11.211 201.4C9.29201 190.022 9.29201 164.378 11.211 153C12.48 145.477 12.884 143.261 13.216 142C13.42 141.23 13.873 139.34 14.223 137.8C14.574 136.26 15.097 134.19 15.387 133.2C15.676 132.21 16.219 130.32 16.594 129C16.969 127.68 17.636 125.61 18.076 124.4C18.516 123.19 18.973 121.75 19.091 121.2C19.21 120.65 19.434 120.02 19.589 119.8C19.743 119.58 20.287 118.23 20.797 116.8C21.307 115.37 21.876 114.029 22.062 113.82C22.248 113.611 22.4 113.217 22.4 112.944C22.4 112.058 26.894 102.632 30.478 96C48.679 62.323 84.578 31.62 119.4 19.947C120.72 19.505 122.16 18.995 122.6 18.814C123.04 18.633 124.21 18.223 125.2 17.903C126.19 17.584 127.72 17.086 128.6 16.798C129.48 16.509 130.74 16.138 131.4 15.972C132.06 15.807 134.04 15.31 135.8 14.868C137.56 14.426 140.35 13.776 142 13.423C143.65 13.071 145.81 12.607 146.8 12.392C149.333 11.843 153.528 11.244 158.2 10.766C160.4 10.54 163.55 10.21 165.2 10.031C171.111 9.39099 183.846 9.57299 192.2 10.415ZM163.8 14.443C162.48 14.625 159.69 14.963 157.6 15.193C150.478 15.977 148.034 16.332 147.517 16.657C147.233 16.836 146.01 17.11 144.8 17.268C141.7 17.671 137.719 18.545 137.365 18.9C137.201 19.065 136.629 19.2 136.094 19.2C135.559 19.2 134.554 19.455 133.86 19.766C133.167 20.078 132.06 20.417 131.4 20.521C130.163 20.714 127.927 21.445 126.705 22.054C126.323 22.244 125.693 22.401 125.305 22.402C124.917 22.404 124.084 22.674 123.454 23.002C122.824 23.331 122.004 23.6 121.631 23.6C121.258 23.6 120.604 23.864 120.176 24.187C119.749 24.51 119.04 24.786 118.6 24.8C118.16 24.814 117.451 25.09 117.024 25.413C116.596 25.736 115.921 26 115.524 26C115.126 26 114.8 26.18 114.8 26.4C114.8 26.62 114.363 26.8 113.829 26.8C113.294 26.8 112.587 27.07 112.257 27.4C111.927 27.73 111.422 28 111.134 28C110.847 28 109.709 28.434 108.606 28.965C107.503 29.496 105.79 30.322 104.8 30.8C103.81 31.279 101.74 32.365 100.2 33.214C98.66 34.062 96.591 35.163 95.603 35.661C94.615 36.158 92.448 37.473 90.788 38.582C86.799 41.249 86.342 41.536 85.4 41.972C84.96 42.176 83.892 42.985 83.027 43.771C82.162 44.557 81.245 45.2 80.989 45.2C80.733 45.2 80.181 45.582 79.762 46.049C79.343 46.515 77.982 47.591 76.737 48.438C75.493 49.286 74.139 50.405 73.73 50.926C73.32 51.447 72.548 52.107 72.015 52.392C70.091 53.422 52.4 70.9 52.4 71.771C52.4 72.025 51.576 73.036 50.568 74.017C49.56 74.998 48.456 76.34 48.113 77C47.771 77.66 46.886 78.876 46.145 79.701C45.405 80.527 44.8 81.348 44.8 81.526C44.8 81.704 44.455 82.22 44.033 82.672C43.187 83.581 39.6 88.736 39.6 89.044C39.6 89.151 38.931 90.265 38.113 91.519C37.295 92.774 36.147 94.7 35.562 95.8C34.978 96.9 34.036 98.61 33.471 99.6C32.905 100.59 31.874 102.57 31.18 104C30.486 105.43 29.666 107.078 29.359 107.662C29.051 108.246 28.8 109.011 28.8 109.362C28.8 109.713 28.634 110 28.432 110C28.229 110 27.945 110.538 27.801 111.195C27.657 111.853 27.372 112.494 27.169 112.619C26.966 112.745 26.8 113.175 26.8 113.575C26.8 113.975 26.53 114.526 26.2 114.8C25.87 115.074 25.6 115.621 25.6 116.017C25.6 116.412 25.347 117.245 25.037 117.868C24.266 119.419 22.952 122.942 22.526 124.6C22.413 125.04 22.068 125.967 21.76 126.66C21.452 127.354 21.2 128.288 21.2 128.737C21.2 129.186 21.02 129.664 20.8 129.8C20.58 129.936 20.399 130.532 20.398 131.124C20.396 131.716 20.126 132.716 19.798 133.346C19.469 133.976 19.2 134.99 19.2 135.6C19.2 136.21 18.931 137.224 18.602 137.854C18.274 138.484 18.004 139.639 18.002 140.42C18.001 141.201 17.837 142.011 17.638 142.22C17.226 142.652 16.431 146.945 16.049 150.8C15.907 152.23 15.633 153.649 15.44 153.953C15.081 154.517 14.717 158.589 13.962 170.5C13.663 175.224 13.663 179.176 13.962 183.9C14.717 195.811 15.081 199.883 15.44 200.447C15.633 200.751 15.907 202.17 16.049 203.6C16.431 207.455 17.226 211.748 17.638 212.18C17.837 212.389 18.001 213.199 18.002 213.98C18.004 214.761 18.274 215.916 18.602 216.546C18.931 217.176 19.2 218.19 19.2 218.8C19.2 219.41 19.469 220.424 19.798 221.054C20.126 221.684 20.396 222.684 20.398 223.276C20.399 223.868 20.58 224.464 20.8 224.6C21.02 224.736 21.201 225.242 21.202 225.724C21.204 226.206 21.474 227.116 21.802 227.746C22.131 228.376 22.406 229.276 22.413 229.746C22.42 230.216 22.69 230.949 23.013 231.376C23.336 231.804 23.6 232.481 23.6 232.882C23.6 233.614 23.701 233.875 24.932 236.332C25.3 237.065 25.6 237.988 25.6 238.383C25.6 238.779 25.87 239.326 26.2 239.6C26.53 239.874 26.8 240.425 26.8 240.825C26.8 241.225 26.966 241.655 27.169 241.781C27.372 241.906 27.657 242.547 27.801 243.205C27.945 243.862 28.229 244.4 28.432 244.4C28.634 244.4 28.8 244.726 28.8 245.124C28.8 245.521 29.064 246.196 29.387 246.624C29.71 247.051 29.98 247.805 29.987 248.3C29.994 248.795 30.18 249.2 30.4 249.2C30.62 249.2 30.8 249.524 30.8 249.92C30.8 250.316 31.001 250.841 31.246 251.086C31.736 251.576 32.256 252.471 33.635 255.2C34.135 256.19 34.647 257.09 34.772 257.2C34.898 257.31 35.355 258.12 35.789 259C36.224 259.88 36.944 261.14 37.39 261.8C37.837 262.46 38.417 263.36 38.68 263.8C40.693 267.165 42.531 269.968 43.322 270.88C43.837 271.474 44.776 272.779 45.409 273.78C46.042 274.781 46.699 275.6 46.869 275.6C47.04 275.6 47.479 276.179 47.845 276.888C48.211 277.596 49.341 279.051 50.356 280.121C51.37 281.191 52.333 282.423 52.497 282.859C52.889 283.907 71.076 302 71.737 302C72.019 302 72.779 302.558 73.425 303.24C74.071 303.922 75.41 305.033 76.4 305.71C77.39 306.386 78.646 307.375 79.192 307.907C79.737 308.439 80.727 309.153 81.392 309.495C82.056 309.836 83.129 310.629 83.776 311.257C84.423 311.886 85.11 312.4 85.303 312.4C85.496 312.4 86.243 312.85 86.964 313.4C87.686 313.95 88.381 314.4 88.509 314.4C88.638 314.4 89.881 315.163 91.272 316.095C94.439 318.218 96.991 319.604 104.8 323.438C111.223 326.592 112.309 327.098 115 328.19C115.88 328.547 116.913 329.01 117.295 329.219C117.677 329.429 118.317 329.6 118.718 329.6C119.119 329.6 119.796 329.864 120.224 330.187C120.651 330.51 121.495 330.78 122.1 330.787C122.705 330.794 123.2 330.972 123.2 331.182C123.2 331.392 123.875 331.686 124.7 331.834C125.525 331.983 126.38 332.212 126.6 332.343C127.504 332.882 131.069 333.976 132 334C132.55 334.014 133.349 334.29 133.776 334.613C134.204 334.936 135.119 335.2 135.81 335.2C136.501 335.2 137.201 335.335 137.365 335.5C137.697 335.833 141.414 336.67 144.8 337.174C146.01 337.354 147.629 337.703 148.397 337.951C149.166 338.198 150.573 338.4 151.524 338.4C152.475 338.4 153.588 338.579 153.998 338.799C157.279 340.555 196.938 340.6 200.328 338.851C200.698 338.661 202.217 338.412 203.704 338.298C205.191 338.185 206.631 337.909 206.904 337.687C207.177 337.464 208.3 337.189 209.4 337.076C212.325 336.773 216.142 335.965 216.58 335.556C216.789 335.36 217.509 335.199 218.18 335.198C218.851 335.196 219.916 334.926 220.546 334.598C221.176 334.269 222.2 334 222.822 334C223.444 334 224.054 333.836 224.178 333.635C224.303 333.434 225.122 333.148 226 333C226.878 332.852 227.697 332.566 227.822 332.365C227.946 332.164 228.352 331.999 228.724 331.998C229.096 331.996 229.916 331.726 230.546 331.398C231.176 331.069 232.016 330.8 232.413 330.8C232.81 330.8 233.735 330.5 234.468 330.132C236.643 329.042 236.967 328.915 238.313 328.619C239.021 328.464 239.6 328.171 239.6 327.968C239.6 327.766 240.005 327.594 240.5 327.587C240.995 327.58 241.749 327.31 242.176 326.987C242.604 326.664 243.279 326.4 243.676 326.4C244.074 326.4 244.4 326.234 244.4 326.032C244.4 325.829 244.94 325.545 245.6 325.4C246.26 325.255 246.8 324.971 246.8 324.768C246.8 324.566 247.059 324.4 247.376 324.4C247.965 324.4 255.476 320.579 258 318.995C258.77 318.512 259.805 317.988 260.3 317.831C260.795 317.675 261.2 317.407 261.2 317.237C261.2 317.067 261.695 316.706 262.3 316.435C263.653 315.827 267.751 313.111 267.933 312.7C268.007 312.535 268.259 312.4 268.494 312.4C268.729 312.4 269.659 311.852 270.561 311.182C271.462 310.513 273.55 308.964 275.2 307.741C276.85 306.517 279.063 304.725 280.119 303.758C281.174 302.791 282.211 302 282.423 302C283.34 302 302 283.268 302 282.348C302 282.163 302.896 281.064 303.992 279.906C305.088 278.748 305.988 277.613 305.992 277.383C305.996 277.154 306.585 276.326 307.3 275.543C308.76 273.945 312.4 269.001 312.4 268.616C312.4 268.478 313.092 267.429 313.938 266.283C314.784 265.137 315.8 263.57 316.194 262.8C316.589 262.03 317.04 261.31 317.197 261.2C317.353 261.09 317.809 260.28 318.208 259.4C318.607 258.52 319.153 257.53 319.421 257.2C319.999 256.487 323.41 249.753 325.195 245.8C325.891 244.26 326.716 242.522 327.03 241.938C327.343 241.354 327.6 240.589 327.6 240.238C327.6 239.887 327.759 239.6 327.953 239.6C328.148 239.6 328.399 239.195 328.513 238.7C328.813 237.39 329.629 235.159 330.255 233.938C330.555 233.354 330.8 232.51 330.8 232.062C330.8 231.614 330.98 231.136 331.2 231C331.42 230.864 331.6 230.476 331.6 230.137C331.6 229.798 331.84 228.954 332.134 228.26C333.112 225.953 333.69 224.212 333.879 223C333.983 222.34 334.322 221.233 334.634 220.54C334.945 219.846 335.2 218.732 335.2 218.063C335.2 217.394 335.38 216.736 335.6 216.6C335.82 216.464 336 215.846 336 215.227C336 214.607 336.27 213.335 336.6 212.4C336.93 211.465 337.2 209.948 337.2 209.03C337.2 208.111 337.377 207.183 337.593 206.967C337.988 206.572 338.507 203.267 339.219 196.6C339.431 194.62 339.783 191.782 340.002 190.293C340.518 186.782 340.518 167.618 340.002 164.107C339.783 162.618 339.431 159.78 339.219 157.8C338.507 151.133 337.988 147.828 337.593 147.433C337.377 147.217 337.2 146.26 337.2 145.307C337.2 144.354 336.93 142.928 336.6 142.138C336.27 141.349 336 140.105 336 139.375C336 138.645 335.82 137.936 335.6 137.8C335.38 137.664 335.199 136.978 335.198 136.276C335.196 135.574 334.926 134.484 334.598 133.854C334.269 133.224 334 132.224 334 131.631C334 131.038 333.736 130.204 333.413 129.776C333.09 129.349 332.82 128.616 332.813 128.146C332.806 127.676 332.531 126.776 332.202 126.146C331.874 125.516 331.604 124.696 331.602 124.324C331.601 123.952 331.42 123.536 331.2 123.4C330.98 123.264 330.8 122.748 330.8 122.253C330.8 121.758 330.536 121.004 330.213 120.576C329.89 120.149 329.62 119.483 329.613 119.095C329.606 118.707 329.429 118.077 329.219 117.695C329.01 117.313 328.547 116.28 328.19 115.4C326.135 110.335 322.251 102.156 320.402 99C319.757 97.9 318.84 96.19 318.364 95.2C317.887 94.21 317.365 93.31 317.203 93.2C317.04 93.09 316.52 92.235 316.046 91.3C315.572 90.365 315.052 89.598 314.892 89.595C314.731 89.593 314.256 88.873 313.836 87.995C313.415 87.118 312.92 86.4 312.736 86.4C312.551 86.4 312.4 86.218 312.4 85.996C312.4 85.521 308.275 79.827 306.93 78.445C306.418 77.92 305.998 77.29 305.996 77.045C305.993 76.8 305.228 75.803 304.296 74.828C303.363 73.853 302.042 72.272 301.36 71.313C299.316 68.441 283.261 52.4 282.431 52.4C282.2 52.4 281.064 51.508 279.906 50.418C278.748 49.327 277.35 48.202 276.8 47.918C276.25 47.633 275.62 47.202 275.4 46.961C274.783 46.283 268.93 42 268.62 42C268.47 42 267.757 41.55 267.036 41C266.314 40.45 265.612 40 265.474 40C265.213 40 261.55 37.573 261.2 37.169C261.09 37.041 260.46 36.67 259.8 36.343C258.359 35.629 254.269 33.354 252.6 32.338C251.94 31.936 251.13 31.493 250.8 31.354C250.47 31.215 249.03 30.568 247.6 29.916C246.17 29.264 244.55 28.541 244 28.309C241.211 27.134 239.078 26.249 237 25.403C236.12 25.044 234.89 24.492 234.268 24.176C233.645 23.859 232.745 23.594 232.268 23.587C231.79 23.58 231.051 23.31 230.624 22.987C230.196 22.664 229.442 22.4 228.947 22.4C228.452 22.4 227.936 22.22 227.8 22C227.664 21.78 227.068 21.594 226.476 21.586C225.884 21.578 224.95 21.314 224.4 21C223.85 20.686 222.815 20.422 222.1 20.414C221.385 20.406 220.8 20.236 220.8 20.035C220.8 19.834 220.035 19.554 219.1 19.412C218.165 19.271 217.04 18.991 216.6 18.791C215.56 18.319 211.934 17.578 209.4 17.321C208.3 17.209 207.181 16.939 206.913 16.72C206.644 16.502 205.024 16.166 203.313 15.975C201.601 15.783 198.67 15.443 196.8 15.218C194.93 14.993 191.85 14.627 189.955 14.405C185.932 13.932 167.301 13.959 163.8 14.443ZM195 15.911C197.2 16.095 199.27 16.369 199.6 16.52C199.93 16.672 201.55 16.966 203.2 17.175C204.85 17.384 207.55 17.842 209.2 18.194C210.85 18.545 213.043 18.993 214.073 19.188C215.104 19.384 216.307 19.736 216.747 19.972C217.187 20.207 218.153 20.4 218.894 20.4C219.634 20.4 220.411 20.57 220.62 20.777C220.829 20.984 221.72 21.334 222.6 21.554C226.483 22.526 227.067 22.701 227.883 23.137C228.358 23.392 229.209 23.6 229.774 23.6C230.338 23.6 230.8 23.778 230.8 23.995C230.8 24.213 231.52 24.506 232.4 24.646C233.28 24.787 234 25.051 234 25.233C234 25.415 234.632 25.682 235.404 25.827C236.177 25.972 236.907 26.25 237.028 26.445C237.149 26.64 237.687 26.8 238.224 26.8C238.761 26.8 239.2 26.968 239.2 27.173C239.2 27.378 239.605 27.663 240.1 27.805C241.161 28.11 243.51 29.08 244.495 29.619C244.877 29.829 245.44 30 245.746 30C246.052 30 246.526 30.27 246.8 30.6C247.074 30.93 247.621 31.2 248.016 31.2C248.41 31.2 248.793 31.35 248.867 31.532C248.94 31.715 250.35 32.536 252 33.356C253.65 34.176 255.9 35.371 257 36.01C258.1 36.649 259.36 37.358 259.8 37.585C260.943 38.175 262.167 38.959 262.4 39.25C262.51 39.387 263.238 39.84 264.017 40.255C264.797 40.671 266.351 41.683 267.471 42.505C268.591 43.327 269.689 44 269.911 44C270.133 44 270.418 44.27 270.545 44.6C270.671 44.93 270.968 45.2 271.204 45.2C271.441 45.2 271.851 45.384 272.117 45.608C274.132 47.309 275.034 47.999 275.242 48C275.374 48 275.938 48.405 276.494 48.9C277.05 49.395 278.184 50.34 279.015 51C282.333 53.637 283.077 54.26 284.979 55.995C288.356 59.076 296.473 67.291 299.2 70.389C300.63 72.014 302.025 73.568 302.3 73.843C302.575 74.118 302.8 74.444 302.8 74.568C302.8 74.804 304.095 76.409 305.3 77.669C305.685 78.071 306.003 78.535 306.006 78.7C306.01 78.865 306.727 79.81 307.6 80.8C308.473 81.79 309.19 82.745 309.194 82.921C309.197 83.098 310.19 84.581 311.4 86.217C312.61 87.854 313.6 89.312 313.6 89.458C313.6 89.605 314.05 90.314 314.6 91.036C315.15 91.757 315.6 92.445 315.6 92.566C315.6 92.687 316.287 93.914 317.126 95.293C317.965 96.672 318.777 98.07 318.93 98.4C319.084 98.73 319.565 99.54 320 100.2C320.435 100.86 320.901 101.67 321.034 102C321.707 103.662 322.633 105.415 322.9 105.533C323.065 105.607 323.2 105.907 323.2 106.201C323.2 106.495 323.463 107.245 323.785 107.868C324.107 108.49 324.682 109.765 325.062 110.7C325.443 111.635 325.899 112.4 326.077 112.4C326.255 112.4 326.4 112.837 326.4 113.371C326.4 113.906 326.67 114.613 327 114.943C327.33 115.273 327.6 115.905 327.6 116.348C327.6 116.791 327.76 117.251 327.955 117.372C328.15 117.493 328.428 118.223 328.573 118.996C328.718 119.768 329.008 120.4 329.218 120.4C329.428 120.4 329.6 120.927 329.6 121.571C329.6 122.216 329.87 123.013 330.2 123.343C330.53 123.673 330.806 124.271 330.813 124.671C330.828 125.503 332.15 129.483 332.541 129.875C332.684 130.017 332.801 130.598 332.802 131.167C332.804 131.735 333.074 132.716 333.402 133.346C333.731 133.976 334 134.927 334 135.459C334 135.99 334.27 137.072 334.6 137.862C334.93 138.651 335.2 139.818 335.2 140.454C335.2 141.09 335.371 141.923 335.58 142.305C335.79 142.687 336.072 144.032 336.208 145.294C336.345 146.555 336.623 147.691 336.828 147.817C337.033 147.944 337.204 148.982 337.21 150.124C337.215 151.266 337.403 152.92 337.627 153.8C339.472 161.033 339.465 194.622 337.618 200.797C337.388 201.566 337.2 203.13 337.2 204.274C337.2 205.417 337.033 206.456 336.828 206.583C336.623 206.709 336.345 207.845 336.208 209.106C336.072 210.368 335.79 211.713 335.58 212.095C335.371 212.477 335.2 213.31 335.2 213.946C335.2 214.582 334.93 215.749 334.6 216.538C334.27 217.328 334 218.41 334 218.941C334 219.473 333.731 220.424 333.402 221.054C333.074 221.684 332.804 222.665 332.802 223.233C332.801 223.802 332.684 224.383 332.541 224.525C332.107 224.959 330.827 228.942 330.813 229.9C330.806 230.395 330.622 230.8 330.405 230.8C330.187 230.8 329.894 231.52 329.754 232.4C329.613 233.28 329.349 234 329.167 234C328.985 234 328.718 234.632 328.573 235.404C328.428 236.177 328.15 236.907 327.955 237.028C327.76 237.149 327.6 237.665 327.6 238.175C327.6 238.685 327.33 239.326 327 239.6C326.67 239.874 326.4 240.449 326.4 240.878C326.4 241.306 326.13 241.927 325.8 242.257C325.47 242.587 325.2 243.204 325.2 243.629C325.2 244.053 325.02 244.4 324.8 244.4C324.58 244.4 324.4 244.726 324.4 245.124C324.4 245.521 324.136 246.196 323.813 246.624C323.49 247.051 323.22 247.7 323.213 248.067C323.206 248.433 323.065 248.793 322.9 248.867C322.735 248.94 322.265 249.72 321.856 250.6C321.447 251.48 320.951 252.47 320.755 252.8C320.559 253.13 320.23 253.788 320.024 254.261C319.818 254.735 319.458 255.24 319.225 255.385C318.991 255.529 318.8 255.982 318.8 256.39C318.8 256.799 318.658 257.193 318.484 257.267C318.154 257.406 315.6 261.449 315.6 261.833C315.6 261.954 315.15 262.643 314.6 263.364C314.05 264.086 313.6 264.795 313.6 264.942C313.6 265.088 312.61 266.546 311.4 268.183C310.19 269.819 309.197 271.302 309.194 271.479C309.19 271.655 308.652 272.43 307.998 273.2C306.05 275.493 306 275.557 306 275.783C306 275.902 305.685 276.329 305.3 276.731C304.095 277.991 302.8 279.596 302.8 279.832C302.8 279.956 302.575 280.282 302.3 280.557C302.025 280.832 300.63 282.391 299.2 284.022C293.655 290.344 283.058 300.515 278.6 303.793C277.72 304.44 276.694 305.247 276.319 305.585C274.912 306.856 274.422 307.2 274.017 307.2C273.788 307.2 273.6 307.344 273.6 307.52C273.6 307.695 272.885 308.28 272.011 308.82C271.137 309.359 270.417 309.935 270.411 310.1C270.405 310.265 270.191 310.4 269.936 310.4C269.681 310.4 268.519 311.12 267.354 312C266.188 312.88 265.135 313.6 265.013 313.6C264.891 313.6 263.758 314.276 262.495 315.101C259.384 317.137 258.852 317.457 257 318.407C256.12 318.858 254.86 319.58 254.2 320.01C253.54 320.439 252.73 320.901 252.4 321.034C250.738 321.707 248.985 322.633 248.867 322.9C248.793 323.065 248.41 323.2 248.016 323.2C247.621 323.2 247.074 323.47 246.8 323.8C246.526 324.13 246.052 324.4 245.746 324.4C245.44 324.4 244.877 324.568 244.495 324.773C242.633 325.771 238.485 327.6 238.082 327.6C237.672 327.6 235.592 328.412 233.987 329.198C233.65 329.363 232.795 329.625 232.087 329.781C231.379 329.936 230.8 330.21 230.8 330.388C230.8 330.566 230.215 330.8 229.5 330.906C228.248 331.093 226.067 331.785 224.785 332.404C224.446 332.567 223.412 332.829 222.487 332.985C221.561 333.142 220.703 333.434 220.578 333.635C220.454 333.836 219.806 334 219.137 334C218.468 334 217.354 334.257 216.66 334.571C215.967 334.885 214.68 335.232 213.8 335.342C212.92 335.452 210.85 335.836 209.2 336.194C207.55 336.552 204.85 337.013 203.2 337.219C201.55 337.424 199.787 337.774 199.281 337.996C198.776 338.218 197.246 338.406 195.881 338.413C194.517 338.42 191.51 338.684 189.2 339C183.632 339.762 170.243 339.765 165 339.005C162.8 338.686 159.974 338.42 158.72 338.413C157.465 338.406 155.402 338.13 154.135 337.8C152.869 337.47 151.057 337.2 150.111 337.2C149.164 337.2 148.077 337.025 147.695 336.81C147.313 336.596 145.83 336.228 144.4 335.993C139.257 335.146 135.529 334.288 133.8 333.554C133.088 333.251 131.526 332.835 128.4 332.114C127.85 331.987 127.045 331.64 126.611 331.342C126.177 331.044 125.367 330.794 124.811 330.787C124.255 330.78 123.451 330.51 123.024 330.187C122.596 329.864 121.919 329.6 121.518 329.6C120.786 329.6 120.525 329.499 118.068 328.268C117.335 327.9 116.494 327.6 116.2 327.6C115.906 327.6 115.155 327.346 114.532 327.035C113.91 326.725 112.41 326.024 111.2 325.478C106.002 323.133 103.391 321.833 103.267 321.527C103.193 321.347 102.893 321.2 102.599 321.2C101.976 321.2 99.683 320.025 98.89 319.3C98.589 319.025 98.086 318.8 97.771 318.8C97.457 318.8 97.2 318.641 97.2 318.447C97.2 318.252 96.885 317.99 96.5 317.863C95.601 317.567 93.041 316.09 91.007 314.694C90.131 314.092 89.205 313.6 88.95 313.6C88.695 313.6 88.382 313.33 88.255 313C88.129 312.67 87.764 312.4 87.446 312.4C87.127 312.4 86.807 312.262 86.733 312.093C86.66 311.924 85.634 311.172 84.454 310.422C83.274 309.671 81.924 308.735 81.454 308.34C80.984 307.945 79.07 306.441 77.2 304.998C70.182 299.581 63.109 292.99 56.8 285.991C55.15 284.16 53.485 282.383 53.1 282.042C52.715 281.701 52.4 281.269 52.4 281.083C52.4 280.896 52.175 280.512 51.9 280.231C50.089 278.376 47.335 274.765 44.096 270C43.273 268.79 42.42 267.597 42.2 267.349C41.178 266.197 38.916 262.575 38.547 261.5C38.415 261.115 38.148 260.8 37.953 260.8C37.759 260.8 37.6 260.543 37.6 260.229C37.6 259.914 37.375 259.412 37.1 259.112C36.298 258.237 31.042 248.155 29.848 245.2C29.714 244.87 29.445 244.33 29.249 244C29.053 243.67 28.704 242.95 28.473 242.4C28.243 241.85 27.786 240.77 27.459 240C27.131 239.23 26.747 238.195 26.605 237.7C26.463 237.205 26.178 236.8 25.973 236.8C25.768 236.8 25.594 236.305 25.587 235.7C25.58 235.095 25.31 234.251 24.987 233.824C24.664 233.396 24.4 232.642 24.4 232.147C24.4 231.652 24.22 231.136 24 231C23.78 230.864 23.599 230.448 23.598 230.076C23.596 229.704 23.326 228.884 22.998 228.254C22.669 227.624 22.394 226.724 22.386 226.254C22.378 225.784 22.114 224.95 21.8 224.4C21.486 223.85 21.222 222.916 21.214 222.324C21.206 221.732 21.044 221.151 20.853 221.033C20.662 220.915 20.387 219.921 20.241 218.825C20.096 217.73 19.802 216.725 19.588 216.593C19.375 216.461 19.2 215.716 19.2 214.937C19.2 214.158 18.942 212.954 18.627 212.26C18.312 211.567 17.962 210.19 17.849 209.2C17.736 208.21 17.355 205.69 17.003 203.6C16.651 201.51 16.192 197.837 15.983 195.437C15.774 193.038 15.423 190.428 15.204 189.637C14.683 187.762 14.683 166.638 15.204 164.763C15.423 163.972 15.771 161.362 15.976 158.963C16.182 156.563 16.649 152.89 17.014 150.8C17.379 148.71 17.762 146.19 17.866 145.2C17.97 144.21 18.312 142.833 18.627 142.14C18.942 141.446 19.2 140.342 19.2 139.685C19.2 139.029 19.469 137.976 19.798 137.346C20.126 136.716 20.396 135.626 20.398 134.924C20.399 134.222 20.58 133.536 20.8 133.4C21.02 133.264 21.206 132.668 21.214 132.076C21.222 131.484 21.486 130.55 21.8 130C22.114 129.45 22.378 128.616 22.386 128.146C22.394 127.676 22.669 126.776 22.998 126.146C23.326 125.516 23.596 124.696 23.598 124.324C23.599 123.952 23.78 123.536 24 123.4C24.22 123.264 24.4 122.748 24.4 122.253C24.4 121.758 24.664 121.004 24.987 120.576C25.31 120.149 25.58 119.305 25.587 118.7C25.594 118.095 25.768 117.6 25.973 117.6C26.178 117.6 26.46 117.195 26.598 116.7C26.737 116.205 27.007 115.44 27.198 115C27.603 114.068 28.607 111.668 28.955 110.8C29.087 110.47 29.359 109.93 29.559 109.6C29.76 109.27 30.976 106.84 32.261 104.2C33.547 101.56 34.734 99.34 34.899 99.267C35.065 99.193 35.2 98.81 35.2 98.416C35.2 98.021 35.47 97.474 35.8 97.2C36.13 96.926 36.4 96.454 36.4 96.151C36.4 95.848 36.577 95.6 36.792 95.6C37.008 95.6 37.298 95.15 37.436 94.6C37.574 94.05 37.826 93.6 37.997 93.6C38.167 93.6 38.412 93.285 38.542 92.9C38.783 92.183 39.626 90.757 40.021 90.4C40.143 90.29 40.677 89.48 41.208 88.6C41.74 87.72 42.316 86.82 42.49 86.6C42.663 86.38 44.019 84.475 45.502 82.367C47.944 78.899 50.575 75.526 51.9 74.169C52.175 73.888 52.4 73.53 52.4 73.374C52.4 73.219 52.805 72.7 53.3 72.221C53.795 71.743 55.46 69.936 57 68.208C60.279 64.526 63.909 60.899 67.752 57.461C69.265 56.108 71.095 54.415 71.819 53.7C72.542 52.985 73.237 52.4 73.364 52.4C73.49 52.4 74 52.051 74.497 51.624C74.994 51.197 75.94 50.382 76.6 49.813C77.26 49.245 78.745 48.124 79.9 47.323C81.055 46.522 82 45.717 82 45.534C82 45.35 82.175 45.2 82.388 45.2C82.722 45.2 86.221 42.979 86.8 42.4C87.104 42.096 88.455 41.296 89.882 40.574C90.586 40.218 91.374 39.673 91.631 39.363C91.888 39.053 92.247 38.8 92.429 38.8C92.611 38.8 93.56 38.26 94.538 37.6C95.516 36.94 96.515 36.4 96.758 36.4C97.001 36.4 97.2 36.24 97.2 36.043C97.2 35.847 97.65 35.574 98.2 35.436C98.75 35.298 99.2 35.008 99.2 34.792C99.2 34.577 99.538 34.4 99.951 34.4C100.364 34.4 100.926 34.13 101.2 33.8C101.474 33.47 102.021 33.2 102.416 33.2C102.81 33.2 103.193 33.065 103.267 32.9C103.399 32.601 106.424 31.082 111 29.014C112.32 28.417 113.91 27.675 114.532 27.365C115.155 27.054 115.923 26.8 116.238 26.8C116.553 26.8 117.123 26.632 117.505 26.426C119.23 25.496 120.978 24.8 121.585 24.8C121.949 24.8 122.596 24.536 123.024 24.213C123.451 23.89 124.261 23.62 124.824 23.613C125.386 23.606 126.196 23.336 126.624 23.013C127.051 22.69 127.884 22.42 128.476 22.413C129.068 22.406 129.664 22.22 129.8 22C129.936 21.78 130.532 21.599 131.124 21.598C131.716 21.596 132.716 21.326 133.346 20.998C133.976 20.669 134.899 20.4 135.397 20.4C135.895 20.4 136.949 20.13 137.738 19.8C138.528 19.47 139.799 19.2 140.564 19.2C141.328 19.2 142.049 19.044 142.167 18.853C142.286 18.662 143.509 18.378 144.887 18.222C146.265 18.066 147.574 17.797 147.796 17.624C148.018 17.45 149.496 17.205 151.08 17.079C152.663 16.953 154.317 16.659 154.753 16.425C155.19 16.191 156.954 15.99 158.674 15.977C160.393 15.964 162.52 15.799 163.4 15.609C165.292 15.2 189.24 15.429 195 15.911ZM74.881 65.25C72.748 69.164 66.165 76.14 62.721 78.136C59.421 80.049 60.976 83.615 64.741 82.769C67.186 82.219 66.524 81.629 86.079 101.8C89.278 105.1 94.299 110.273 97.237 113.296C100.826 116.99 102.581 119.087 102.589 119.69C102.597 120.347 102.893 120.644 103.687 120.794C104.387 120.927 106.596 122.795 109.887 126.036C115.756 131.817 117.319 133.02 124.966 137.638C128.346 139.679 131.721 142.1 133.557 143.8C136.768 146.772 150.494 160.144 156.605 166.253C160.012 169.658 160.397 169.925 162.288 170.185C164.24 170.453 166 171.537 166 172.471C166 173.328 170.456 178 171.273 178C172.252 178 174.4 175.796 174.4 174.792C174.4 174.005 171.068 171.162 168.761 169.982C166.902 169.031 166 167.619 166 165.661C166 164.32 165.754 163.875 164.3 162.584C150.138 150.008 137.41 136.622 133.511 130.205C128.05 121.215 127.563 120.618 116.678 109.589C111.135 103.974 103.996 96.684 100.813 93.389C97.631 90.095 91.376 83.679 86.913 79.132C78.603 70.663 78.33 70.27 79.284 68.175C79.735 67.185 79.654 67.007 78.1 65.556C76.083 63.675 75.757 63.644 74.881 65.25ZM274.452 65.049C273.655 65.607 273.558 65.93 273.762 67.349C273.892 68.257 274.009 69.36 274.023 69.8C274.048 70.572 267.327 77.369 247.127 97C237.941 105.928 238.176 105.721 237.094 105.797C236.48 105.841 236.074 106.241 235.797 107.076C235.576 107.744 232.967 110.815 229.997 113.903C225.464 118.617 224.056 120.4 221.2 125.047C215.273 134.691 214.508 135.628 202.6 147.833C196.22 154.373 190.725 160.01 190.389 160.362C190.054 160.713 189.229 161.458 188.557 162.017C187.254 163.102 186.4 165.012 186.4 166.84C186.4 167.791 185.825 168.387 182.6 170.78C178.208 174.038 177.779 175.07 180.031 176.964C182.027 178.644 182.338 178.521 185.015 174.999C185.683 174.119 186.576 172.729 187.001 171.909C187.815 170.335 189.191 169.6 191.324 169.6C192.292 169.6 192.969 169.115 194.765 167.134C197.216 164.43 206.748 154.591 215.2 146.04C220.319 140.861 220.968 140.352 227.689 136.259C235.73 131.362 235.483 131.569 247.454 119.745C252.324 114.935 259.164 108.223 262.654 104.829C266.145 101.435 272.818 94.91 277.484 90.329C285.524 82.436 287.082 81.239 287.8 82.4C288.31 83.224 289.978 82.78 291.178 81.5C292.904 79.658 292.743 79.07 290.105 77.581C287.369 76.037 279.306 68.075 278.272 65.896C277.468 64.2 276.097 63.896 274.452 65.049ZM84.006 79.5C87.429 82.965 93.643 89.387 97.815 93.772C101.987 98.156 106.584 102.942 108.032 104.407C111.722 108.139 111.741 107.834 107.555 111.894C105.566 113.822 103.777 115.458 103.579 115.53C103.382 115.601 100.225 112.631 96.565 108.93C92.905 105.228 85.431 97.695 79.955 92.189C74.309 86.51 70 81.864 70 81.454C70 80.668 76.654 73.2 77.355 73.2C77.59 73.2 80.584 76.035 84.006 79.5ZM277.93 75.349C279.178 76.531 280.875 78.127 281.7 78.896C282.525 79.665 283.2 80.554 283.2 80.871C283.2 81.321 272.869 91.951 270.634 93.8C270.033 94.297 262.429 101.614 254.941 108.9C251.832 111.925 249.039 114.4 248.736 114.4C247.945 114.4 241.071 107.388 241.271 106.786C241.55 105.949 274.56 73.21 275.13 73.205C275.421 73.202 276.681 74.167 277.93 75.349ZM240.687 114.837C242.619 116.837 244.246 118.595 244.302 118.744C244.42 119.055 238.836 124.84 235.512 127.848C234.267 128.975 230.133 131.82 226.324 134.171C222.516 136.522 218.902 138.832 218.294 139.305L217.188 140.165L216.328 139.306L215.469 138.447L217.134 136.24C218.05 135.027 218.8 133.942 218.8 133.829C218.8 133.716 219.313 132.853 219.939 131.912C220.565 130.97 222.029 128.58 223.191 126.6C226.14 121.576 235.12 111.353 236.687 111.236C236.954 111.216 238.754 112.837 240.687 114.837ZM121.044 117.7C125.566 122.325 126.653 123.713 129.579 128.6C131.423 131.68 133.723 135.328 134.69 136.707C137.029 140.039 136.366 142.439 133.711 140.252C133.1 139.749 129.364 137.371 125.408 134.968C118.745 130.921 107.6 121.516 107.6 119.941C107.6 119.489 114.951 112.418 115.431 112.408C115.668 112.404 118.194 114.785 121.044 117.7ZM92.191 138.666C91.759 139.098 91.846 139.559 92.685 141.295C95.185 146.466 97.2 150.904 97.2 151.241C97.2 151.46 90.381 151.567 80.315 151.504L63.43 151.4L61.94 148.6C59.636 144.27 59.731 144 63.551 144C67.515 144 69.289 142.518 66.105 141.866C65.497 141.742 64.1 141.46 63 141.24C61.9 141.02 59.74 140.558 58.2 140.212C56.66 139.867 54.917 139.478 54.327 139.347C52.817 139.015 51.2 140.662 51.2 142.533C51.2 144.506 51.867 144.877 54.862 144.57L57.406 144.309L58.15 146.055C58.56 147.015 59.143 148.323 59.447 148.961C60.301 150.756 59.91 151.895 56.726 156.9C55.343 159.073 55.399 159.058 52.427 158.029C36.354 152.464 19.212 164.682 19.075 181.8C19.041 186.031 19.772 189.813 20.849 190.98C21.042 191.189 21.2 191.607 21.2 191.91C21.2 192.861 24.577 197.721 26.542 199.6C41.211 213.621 66.144 205.642 69.044 186C69.421 183.445 69.733 183.2 72.61 183.2H75.122L79.061 178.872C81.227 176.491 85.07 172.223 87.6 169.386C90.13 166.549 93.28 163.042 94.6 161.593C95.92 160.144 97.414 158.461 97.92 157.853C99.086 156.452 99.486 156.602 100.685 158.891L101.656 160.744L97.711 164.689C90.299 172.101 87.989 180.226 90.581 189.764C97.169 214.007 131.751 214.694 139.867 190.744C146.518 171.116 126.144 151.637 106.692 159.027C105.862 159.342 105.001 159.6 104.777 159.6C104.419 159.6 101.049 152.907 96.939 144.033C95.56 141.055 95.454 139.705 96.636 140.158C96.982 140.291 98.664 140.4 100.374 140.4C106.475 140.4 108.91 144.725 103.237 145.486C100.158 145.899 99.984 147.841 103.056 147.495C108.667 146.862 110.18 141.042 105.291 138.898C103.324 138.035 93.005 137.852 92.191 138.666ZM248.023 138.481C241.591 140.266 243.009 147.6 249.787 147.6C252.338 147.6 251.44 145.902 248.664 145.475C247.402 145.281 245.6 144.009 245.6 143.312C245.6 141.5 247.993 140.466 252.412 140.369C256.596 140.277 256.942 140.496 255.874 142.566C255.523 143.245 254.354 145.69 253.275 148C247.535 160.289 247.737 159.998 245.547 159.094C235.307 154.871 221.388 159.444 215.108 169.095C205.373 184.056 213.626 204.112 231.035 207.8C256.753 213.249 273.038 183.13 254.335 164.705L250.382 160.81L251.398 158.805C252.613 156.407 252.804 156.374 254.49 158.279C256.366 160.397 259.679 164.085 263.61 168.43C265.486 170.504 269.15 174.586 271.753 177.503C276.683 183.028 276.831 183.127 280.378 183.296L282.556 183.4L283.066 186.2C285.861 201.544 303.212 211.286 316.8 205.14C322.926 202.369 326.196 199.756 328.974 195.413C341.933 175.155 321.3 149.732 298.876 158.327L296.752 159.141L295.442 157.071C294.722 155.932 293.628 154.062 293.011 152.916L291.89 150.832L293.238 147.567L294.586 144.302L297.283 144.553C300.69 144.87 301.692 143.953 300.655 141.47C299.783 139.384 298.982 139.115 295.747 139.823C294.236 140.154 291.74 140.685 290.2 141.003C285.587 141.956 285 142.185 285 143.029C285 143.714 285.378 143.822 288.368 144C292.402 144.239 292.373 144.176 290.271 148.2L288.6 151.4L271.9 151.504C255.716 151.606 255.2 151.585 255.2 150.848C255.2 150.429 256.377 147.609 257.817 144.58C259.611 140.804 260.304 138.944 260.022 138.662C259.487 138.127 249.824 137.981 248.023 138.481ZM96.972 154.355C97.093 154.55 96.894 154.955 96.53 155.255C96.166 155.555 91.895 160.21 87.037 165.6C82.18 170.99 77.698 175.94 77.076 176.6L75.947 177.8L75.274 176.824C74.905 176.288 73.954 174.398 73.162 172.624C72.37 170.851 70.871 167.6 69.832 165.4C68.793 163.2 67.56 160.5 67.093 159.4C66.626 158.3 65.915 156.803 65.514 156.074C65.113 155.345 64.889 154.58 65.016 154.374C65.314 153.891 96.674 153.872 96.972 154.355ZM286.971 154.353C287.091 154.547 286.275 156.662 285.157 159.053C281.743 166.358 281.122 167.704 279.921 170.4C277.287 176.314 276.643 177.6 276.312 177.6C275.84 177.6 274.421 176.092 265.588 166.2C262.888 163.176 260.434 160.5 257.5 157.378C256.235 156.033 255.2 154.722 255.2 154.466C255.2 153.9 286.622 153.788 286.971 154.353ZM66.086 164.631C68.23 169.674 70.155 174.16 70.365 174.6C72.443 178.963 72.547 179.8 71.01 179.8C69.854 179.8 69.796 179.705 68.982 176.508C67.65 171.276 65.522 167.499 61.907 163.952C58.327 160.44 58.415 160.746 60.067 157.595C61.77 154.345 61.655 154.21 66.086 164.631ZM291.994 157.589C293.185 159.948 293.536 161.6 292.845 161.6C290.465 161.6 284.328 170.876 283.185 176.2C282.394 179.882 281.694 180.684 280.136 179.693C279.72 179.428 281.566 174.486 284.503 167.996C287.091 162.28 287.6 161.121 287.6 160.95C287.6 160.843 287.964 159.957 288.409 158.979C288.855 158.002 289.39 156.752 289.6 156.201C290.176 154.684 290.673 154.972 291.994 157.589ZM50.931 161.421C53.909 162.463 54.167 161.618 46.519 175.881C45.546 177.696 44.461 179.107 43.587 179.694C40.668 181.654 42.084 184.854 45.348 183.673C46.217 183.359 49.841 183.2 56.128 183.2H65.6L65.598 184.5C65.581 194.023 54.964 203.244 44.08 203.186C18.218 203.048 14.994 165.79 40.4 160.658C42.346 160.265 49.007 160.748 50.931 161.421ZM314.652 161.524C337.57 170.145 332.252 203.056 307.92 203.186C297.469 203.241 287.502 194.959 286.515 185.4L286.285 183.173L296.243 183.326C301.719 183.411 306.787 183.618 307.504 183.786C310.509 184.491 311.069 180.386 308.098 179.427C307.361 179.19 307.066 178.731 304.198 173.363C303.209 171.514 301.576 168.457 300.568 166.572C298.222 162.182 298.293 162.066 304.2 160.633C305.985 160.201 312.642 160.768 314.652 161.524ZM122 162.171C133.926 166.368 140.949 180.249 136.161 190.161C135.852 190.8 135.6 191.484 135.6 191.681C135.6 193.39 130.232 199.313 126.8 201.391C104.541 214.87 81.492 185.628 100.106 167.524C103.978 163.758 103.34 163.232 109.882 175.6C111.103 177.91 112.256 179.994 112.444 180.231C112.631 180.469 112.93 181.366 113.109 182.225C113.555 184.371 115.046 185.255 116.554 184.267C117.988 183.327 117.865 182.167 116.174 180.669C114.754 179.412 114.032 178.275 110.798 172.2C109.86 170.44 108.488 167.881 107.747 166.513C106.07 163.415 106.073 163.296 107.863 162.548C111.345 161.093 118.401 160.905 122 162.171ZM243.529 162.252C245.546 162.969 246.366 164.279 245.235 164.979C245.034 165.103 244.472 166.026 243.986 167.029C241.348 172.478 237.363 179.167 235.97 180.484C234.199 182.158 234.048 182.848 235.2 184C236.593 185.393 239.2 184.064 239.2 181.96C239.2 181.075 241.285 176.981 246.565 167.5C248.431 164.15 248.524 164.153 252.088 167.7C262.528 178.09 260.352 194.666 247.6 201.879C229.304 212.229 207.973 192.986 216.695 174C221.263 164.057 233.512 158.694 243.529 162.252ZM59.916 167.1C62.499 169.889 64.053 172.52 65.221 176.081C66.582 180.23 67.01 180.033 56.91 179.908L48.2 179.8L48.298 178.884C48.352 178.38 49.013 177.003 49.768 175.824C51.192 173.597 54.534 167.813 55.502 165.9C56.37 164.184 57.5 164.492 59.916 167.1ZM298.01 168.5C299.171 170.535 301.009 173.692 302.097 175.516C304.905 180.228 305.211 180.036 295.109 179.908L286.6 179.8L286.618 177.8C286.643 174.963 288.746 170.9 291.948 167.504C295.273 163.977 295.448 164.006 298.01 168.5ZM168.535 182.9C167.495 184.064 165.971 186.276 165.16 187.798C164.382 189.258 162.179 190.446 160.763 190.168C159.919 190.002 159.442 190.284 158.202 191.682C145.183 206.367 131.96 218.877 124.892 223.199C115.609 228.876 118.892 225.896 83.814 260.477C64.769 279.251 66.369 277.962 63.318 276.995C61.199 276.324 58.756 280.639 60.7 281.62C64.29 283.433 72.077 290.694 73.623 293.671C74.525 295.408 75.574 295.847 77.094 295.122C78.321 294.537 78.811 292.316 78.034 290.863C77.511 289.886 78.873 287.931 82.241 284.823C83.538 283.626 88.21 279.126 92.622 274.823C97.034 270.52 103.734 263.989 107.51 260.308C112.463 255.481 114.558 253.686 115.029 253.866C115.732 254.136 116.384 253.409 116.394 252.342C116.397 251.981 118.633 249.418 121.362 246.647C126.807 241.118 128.32 239.136 133.004 231.4C134.736 228.54 136.487 225.75 136.896 225.2C137.669 224.159 155.623 205.573 161.673 199.55C164.511 196.725 165.192 195.809 165.396 194.546C165.534 193.696 165.718 192.638 165.807 192.196C165.897 191.744 167.124 190.631 168.604 189.658C173.592 186.378 174.147 185.45 172.346 183.4C170.917 181.772 169.687 181.611 168.535 182.9ZM178.576 183.396C177.118 185.308 178.927 187.704 183.448 189.85C185.059 190.614 186 192.19 186 194.124C186 195.182 186.33 195.792 187.468 196.844C189.831 199.026 200.445 209.275 207.503 216.188C214.585 223.125 215.006 223.661 220.496 232.699L224.2 238.798L235.8 250.673C242.18 257.204 250.762 265.979 254.87 270.174C275.285 291.014 273.859 289.257 272.634 292.058C272.253 292.93 274.683 295.6 275.859 295.6C276.492 295.6 277.064 294.997 277.994 293.348C279.515 290.654 285.613 284.239 288.627 282.163C292.571 279.447 291.374 275.753 286.987 277.099C285.164 277.659 284.3 277.062 279.254 271.758C274.551 266.813 266.6 258.62 256.634 248.447C251.592 243.301 249.81 241.227 249.777 240.469C249.744 239.711 249.428 239.344 248.566 239.058C247.925 238.846 244.799 236.172 241.62 233.117C236.287 227.991 235.252 227.202 228.22 222.893L220.6 218.225L212.001 209.812C207.272 205.186 200.807 198.831 197.636 195.691C191.913 190.025 191.473 189.716 188.825 189.508C187.625 189.414 187.226 189.069 185.687 186.8C182.112 181.528 180.566 180.787 178.576 183.396ZM218.669 219.75C219.291 220.273 222.68 222.46 226.2 224.611C233.722 229.206 244.402 238.216 244.4 239.965C244.399 240.249 237.607 246.944 236.901 247.355C235.701 248.054 226.444 237.677 222.609 231.332C220.637 228.069 218.253 224.273 217.312 222.896C215.389 220.084 215.313 219.807 216.3 219.232C217.284 218.659 217.402 218.685 218.669 219.75ZM136.118 220.838C136.424 221.327 136.146 221.98 134.923 223.638C134.047 224.827 131.83 228.32 129.997 231.4C125.709 238.607 125.165 239.276 117.68 246.561L115.254 248.921L111.429 244.961C109.325 242.782 107.603 240.949 107.602 240.886C107.601 240.824 109.849 238.526 112.597 235.779C117.443 230.937 120.871 228.342 126.569 225.204C127.873 224.486 130.123 223.031 131.569 221.97C134.26 219.997 135.412 219.71 136.118 220.838ZM257.275 252.7C269.146 264.694 280.452 276.171 281.552 277.346L282.503 278.362L281.404 279.681C278.949 282.628 275.158 286.4 274.65 286.4C273.971 286.4 270.684 283.273 264.342 276.595C261.624 273.733 255.35 267.186 250.4 262.047C245.45 256.908 241.343 252.369 241.273 251.96C241.144 251.204 247.734 244.447 248.63 244.415C248.867 244.407 252.757 248.135 257.275 252.7ZM110.8 252.928C110.8 253.204 105.805 258.373 99.7 264.415C93.595 270.457 86.053 277.981 82.939 281.135C78.126 286.011 77.167 286.811 76.539 286.474C75.303 285.812 68.8 279.562 68.8 279.036C68.8 278.404 72.342 274.817 84.425 263.212C89.801 258.048 96.054 252.018 98.32 249.812C100.587 247.605 102.745 245.693 103.116 245.561C103.844 245.304 110.8 251.972 110.8 252.928Z" fill="white"/>
</svg>
