<svg width="56" height="56" viewBox="0 0 56 56" fill="none" xmlns="http://www.w3.org/2000/svg">
<path fill-rule="evenodd" clip-rule="evenodd" d="M6.89074 0.569147C5.83818 2.49337 2.58969 5.92296 0.890195 6.90424C-0.738243 7.84472 0.0290949 9.59786 1.88699 9.18194C3.09352 8.91155 2.76685 8.62149 12.4166 18.5381C13.9952 20.1605 16.4729 22.7036 17.9227 24.1898C19.6937 26.0059 20.5598 27.0368 20.5637 27.3333C20.5677 27.6563 20.7137 27.8023 21.1055 27.876C21.451 27.9414 22.541 28.8598 24.165 30.4531C27.0612 33.2952 27.8325 33.8867 31.606 36.157C33.2739 37.1604 34.9394 38.3506 35.8454 39.1864C37.4299 40.6475 44.2032 47.2215 47.2188 50.2249C48.9 51.8989 49.09 52.0301 50.0231 52.1579C50.9864 52.2897 51.8549 52.8226 51.8549 53.2818C51.8549 53.7031 54.0538 56 54.4569 56C54.94 56 56 54.9165 56 54.4229C56 54.036 54.3558 52.6383 53.2173 52.0581C52.3 51.5906 51.8549 50.8964 51.8549 49.9338C51.8549 49.2746 51.7335 49.0558 51.016 48.4211C44.0275 42.2384 37.7467 35.6575 35.8227 32.5027C33.1278 28.083 32.8875 27.7895 27.5161 22.3674C24.7809 19.6069 21.258 16.0229 19.6873 14.403C18.1171 12.7836 15.0305 9.62933 12.8281 7.3939C8.72743 3.23032 8.59271 3.03711 9.06347 2.00715C9.28603 1.52044 9.24606 1.43293 8.47921 0.719584C7.48389 -0.205165 7.32302 -0.220405 6.89074 0.569147ZM11.3936 7.57482C13.0828 9.2783 16.1492 12.4355 18.2079 14.5913C20.2666 16.7466 22.5351 19.0995 23.2496 19.8198C25.0705 21.6545 25.0799 21.5046 23.0143 23.5006C22.0328 24.4484 21.1499 25.2527 21.0522 25.2881C20.955 25.323 19.3972 23.8629 17.5911 22.0434C15.785 20.2234 12.0968 16.52 9.39459 13.8131C6.60848 11.0211 4.48214 8.73703 4.48214 8.53546C4.48214 8.14904 7.76566 4.47757 8.11158 4.47757C8.22755 4.47757 9.70498 5.87133 11.3936 7.57482ZM29.6706 26.3549C31.9021 28.6287 32.4385 29.3111 33.8824 31.7137C34.7923 33.2279 35.9273 35.0213 36.4045 35.6993C37.5587 37.3374 37.2315 38.5173 35.9214 37.4421C35.6199 37.1948 33.7763 36.0257 31.8241 34.8443C28.5361 32.8547 23.0365 28.231 23.0365 27.4567C23.0365 27.2345 26.6639 23.7582 26.9008 23.7533C27.0177 23.7513 28.2642 24.9218 29.6706 26.3549Z" fill="white"/>
</svg>
