<svg width="69" height="40" viewBox="0 0 69 40" fill="none" xmlns="http://www.w3.org/2000/svg">
<path fill-rule="evenodd" clip-rule="evenodd" d="M40.8769 0.29207C40.6354 0.533584 40.684 0.79131 41.153 1.76184C42.5507 4.65274 43.6772 7.13384 43.6772 7.32225C43.6772 7.44468 39.865 7.5045 34.2375 7.46928L24.7977 7.41114L23.9647 5.84578C22.6767 3.42505 22.7298 3.2741 24.8654 3.2741C27.0815 3.2741 28.0733 2.44557 26.2932 2.08106C25.9533 2.01174 25.1723 1.85409 24.5573 1.73109C23.9424 1.6081 22.7348 1.34981 21.8739 1.15638C21.0129 0.963504 20.0385 0.746027 19.7086 0.67279C18.8644 0.487182 17.9604 1.40796 17.9604 2.45396C17.9604 3.55698 18.3333 3.7644 20.0077 3.59276L21.43 3.44685L21.8459 4.42296C22.0751 4.95966 22.401 5.69091 22.571 6.04759C23.0484 7.0511 22.8298 7.68787 21.0498 10.486C20.2766 11.7008 20.3079 11.6924 18.6464 11.1172C9.66063 8.00598 0.0772274 14.8366 0.000636197 24.4066C-0.0183718 26.7719 0.3903 28.8863 0.992408 29.5387C1.10031 29.6556 1.18864 29.8893 1.18864 30.0587C1.18864 30.5903 3.07658 33.3074 4.17514 34.3578C12.376 42.1964 26.315 37.7357 27.9363 26.7546C28.1471 25.3262 28.3215 25.1892 29.9299 25.1892H31.3343L33.5364 22.7696C34.7473 21.4385 36.8958 19.0524 38.3102 17.4664C39.7246 15.8803 41.4857 13.9197 42.2236 13.1096C42.9616 12.2996 43.7968 11.3587 44.0797 11.0188C44.7316 10.2355 44.9552 10.3194 45.6255 11.5991L46.1684 12.635L43.9629 14.8405C39.8191 18.9842 38.5277 23.5266 39.9768 28.8589C43.6599 42.4122 62.9933 42.7963 67.5306 29.4068C71.2489 18.4336 59.8586 7.54363 48.9838 11.6751C48.5198 11.8512 48.0384 11.9954 47.9132 11.9954C47.7131 11.9954 45.829 8.25365 43.5313 3.29255C42.7603 1.62767 42.7011 0.872936 43.3619 1.12619C43.5553 1.20055 44.4957 1.26148 45.4517 1.26148C48.8625 1.26148 50.2238 3.67941 47.0522 4.10486C45.3309 4.33575 45.2336 5.42144 46.9511 5.22801C50.0879 4.87412 50.9338 1.62039 48.2006 0.421769C47.1009 -0.0606994 41.3319 -0.163004 40.8769 0.29207ZM43.5497 9.06316C43.6174 9.17218 43.5061 9.3986 43.3026 9.56632C43.0991 9.73404 40.7114 12.3365 37.9955 15.3498C35.2801 18.3631 32.7744 21.1305 32.4267 21.4995L31.7955 22.1703L31.4193 21.6247C31.213 21.325 30.6813 20.2684 30.2385 19.2766C29.7957 18.2854 28.9577 16.4679 28.3768 15.238C27.796 14.008 27.1067 12.4986 26.8456 11.8836C26.5845 11.2687 26.187 10.4317 25.9628 10.0242C25.7386 9.61664 25.6134 9.18895 25.6844 9.07378C25.851 8.80375 43.3831 8.79313 43.5497 9.06316ZM26.2826 14.8081C27.4812 17.6274 28.5574 20.1353 28.6748 20.3813C29.8365 22.8205 29.8947 23.2884 29.0354 23.2884C28.3891 23.2884 28.3567 23.2353 27.9016 21.448C27.157 18.523 25.9673 16.4114 23.9463 14.4285C21.9449 12.465 21.9941 12.6361 22.9176 10.8745C23.8697 9.05757 23.8054 8.9821 26.2826 14.8081ZM17.8101 13.0135C19.4749 13.596 19.6192 13.1236 15.3435 21.0975C14.7995 22.1122 14.1929 22.901 13.7043 23.2292C12.0724 24.3249 12.864 26.1139 14.6888 25.4537C15.1746 25.2781 17.2007 25.1892 20.7155 25.1892H26.0109L26.0098 25.916C26.0003 31.24 20.0647 36.395 13.9799 36.3626C-0.478477 36.2855 -2.28089 15.456 11.9226 12.5869C13.0105 12.3672 16.7344 12.6372 17.8101 13.0135ZM57.5419 13.4328C64.2092 15.7792 68.1355 23.5395 65.4587 29.0809C65.286 29.4381 65.1451 29.8205 65.1451 29.9306C65.1451 30.8861 62.1441 34.1974 60.2254 35.3591C47.7813 42.8947 34.8955 26.5466 45.3018 16.4254C47.4665 14.32 47.1098 14.0259 50.7672 20.9404C51.4498 22.2318 52.0944 23.3969 52.1995 23.5294C52.3041 23.6625 52.4712 24.1639 52.5713 24.6442C52.8206 25.8439 53.6542 26.3381 54.4972 25.7858C55.2989 25.2602 55.2302 24.6117 54.2848 23.7743C53.4909 23.0715 53.0873 22.4359 51.2793 19.0396C50.7549 18.0556 49.9879 16.625 49.5736 15.8602C48.6361 14.1282 48.6377 14.0617 49.6385 13.6435C51.5851 12.8301 55.5298 12.725 57.5419 13.4328ZM22.8332 16.1884C24.2773 17.7476 25.146 19.2185 25.799 21.2093C26.5599 23.5288 26.7992 23.4187 21.1527 23.3488L16.2833 23.2884L16.338 22.7763C16.3682 22.4946 16.7378 21.7248 17.1599 21.0656C17.956 19.8206 19.8243 16.587 20.3655 15.5175C20.8508 14.5582 21.4825 14.7304 22.8332 16.1884Z" fill="white"/>
</svg>
