<svg width="56" height="56" viewBox="0 0 56 56" fill="none" xmlns="http://www.w3.org/2000/svg">
<path fill-rule="evenodd" clip-rule="evenodd" d="M47.1975 0.339198C46.8047 0.614143 46.7569 0.773293 46.8574 1.47248C46.9215 1.91988 46.9792 2.46337 46.9861 2.68017C46.9984 3.06056 43.6857 6.40966 33.7293 16.0825C29.2016 20.4816 29.3174 20.3796 28.7841 20.4171C28.4815 20.4387 28.2814 20.6358 28.1449 21.0473C28.0359 21.3764 26.75 22.8896 25.2861 24.4112C23.0518 26.7339 22.3578 27.6124 20.9501 29.9022C18.0288 34.6541 17.6517 35.1158 11.7824 41.1296C8.63776 44.352 5.92933 47.1296 5.76372 47.303C5.5986 47.476 5.19197 47.8431 4.86075 48.1185C4.21851 48.6531 3.79758 49.5942 3.79758 50.4949C3.79758 50.9635 3.51417 51.2572 1.9246 52.4363C-0.240171 54.0416 -0.451621 54.5501 0.658367 55.4834C1.64218 56.3112 1.79546 56.2505 3.11493 54.5151C3.44418 54.0815 3.88433 53.3966 4.09381 52.9926C4.49502 52.217 5.17324 51.8549 6.22457 51.8549C6.70169 51.8549 7.03537 51.6159 7.9206 50.6398C9.12868 49.3075 13.8269 44.4595 17.9928 40.2461C20.5159 37.6942 20.8358 37.4434 24.1485 35.4267C28.1118 33.0138 27.9901 33.1158 33.8905 27.2897C36.2909 24.9196 39.6622 21.6124 41.3824 19.9401C43.1031 18.2678 46.3921 15.0527 48.692 12.7955C52.6548 8.90634 53.4227 8.31654 53.7766 8.8886C54.028 9.29461 54.8501 9.07584 55.4416 8.44514C56.2923 7.53753 56.213 7.2478 54.9127 6.51412C53.5642 5.75334 49.59 1.83021 49.0804 0.756543C48.6841 -0.0791315 48.0083 -0.228922 47.1975 0.339198ZM48.9118 5.41434C49.5269 5.99675 50.3634 6.78315 50.77 7.16207C51.1766 7.54098 51.5093 7.97902 51.5093 8.13521C51.5093 8.35694 46.4173 13.5947 45.3157 14.5058C45.0194 14.7506 41.2715 18.356 37.5808 21.946C36.0484 23.4365 34.6717 24.656 34.5224 24.656C34.1325 24.656 30.7444 21.201 30.8429 20.9044C30.9805 20.492 47.2507 4.36039 47.5317 4.35792C47.6751 4.35645 48.2962 4.83193 48.9118 5.41434ZM30.5551 24.8714C31.5074 25.8568 32.3093 26.7231 32.3369 26.7965C32.3951 26.9497 29.6428 29.8002 28.0044 31.2823C27.3907 31.8376 25.3531 33.2394 23.4757 34.3979C21.5988 35.5563 19.8175 36.6945 19.5178 36.9275L18.9727 37.3513L18.5488 36.928L18.1254 36.5048L18.9461 35.4173C19.3975 34.8196 19.7672 34.285 19.7672 34.2293C19.7672 34.1737 20.0201 33.7484 20.3286 33.2848C20.6372 32.8206 21.3588 31.643 21.9315 30.6674C23.385 28.1919 27.8112 23.1547 28.5835 23.097C28.7151 23.0872 29.6023 23.8859 30.5551 24.8714Z" fill="white"/>
</svg>
