<svg width="68" height="40" viewBox="0 0 68 40" fill="none" xmlns="http://www.w3.org/2000/svg">
<path fill-rule="evenodd" clip-rule="evenodd" d="M20.6524 0.171179C17.0682 1.16586 17.8584 5.2527 21.6354 5.2527C23.0569 5.2527 22.5565 4.3065 21.0096 4.06856C20.3064 3.96045 19.3022 3.25163 19.3022 2.86323C19.3022 1.8535 20.6357 1.27731 23.0981 1.22326C25.4297 1.17199 25.6225 1.29402 25.0273 2.44752C24.8317 2.82589 24.1803 4.18836 23.579 5.4756C20.3805 12.3236 20.493 12.1614 19.2727 11.6577C13.5665 9.30443 5.81016 11.8527 2.31066 17.2307C-3.11412 25.5676 1.48483 36.7438 11.1859 38.7989C25.5172 41.8353 34.5919 25.0516 24.1697 14.7844L21.9669 12.6139L22.5331 11.4966C23.2102 10.1604 23.3166 10.142 24.2561 11.2035C25.3015 12.3838 27.1476 14.4389 29.3382 16.8601C30.3836 18.0158 32.4253 20.2905 33.8758 21.916C36.623 24.9948 36.7055 25.05 38.6821 25.1441L39.8957 25.2021L40.1799 26.7624C41.7374 35.3128 51.4062 40.7414 58.9781 37.3166C62.3917 35.7725 64.2139 34.3164 65.762 31.8963C72.9833 20.6076 61.4857 6.44075 48.99 11.2303L47.8064 11.6839L47.0764 10.5304C46.6752 9.89567 46.0656 8.85362 45.7217 8.21502L45.0971 7.05372L45.8482 5.23431L46.5994 3.41491L48.1023 3.55477C50.0008 3.73142 50.5592 3.22043 49.9813 1.83679C49.4954 0.674371 49.0491 0.52447 47.2464 0.919C46.4044 1.10345 45.0135 1.39935 44.1553 1.57655C41.5848 2.10761 41.2576 2.23522 41.2576 2.70553C41.2576 3.08725 41.4683 3.14743 43.1345 3.24662C45.3824 3.3798 45.3662 3.34469 44.1949 5.58705L43.2637 7.37023L33.9577 7.42819C24.9393 7.48503 24.6518 7.47333 24.6518 7.06264C24.6518 6.82915 25.3076 5.25772 26.11 3.56982C27.1097 1.46566 27.4959 0.429184 27.3388 0.27204C27.0407 -0.0260861 21.656 -0.107444 20.6524 0.171179ZM42.356 9.01578C42.4229 9.12388 41.9681 10.3025 41.3451 11.6348C39.4427 15.7055 39.0966 16.4556 38.4274 17.9579C36.9596 21.2534 36.6008 21.9701 36.4163 21.9701C36.1533 21.9701 35.3626 21.1297 30.4404 15.6175C28.9359 13.9324 27.5684 12.4412 25.9334 10.7015C25.2285 9.95196 24.6518 9.22141 24.6518 9.07875C24.6518 8.76335 42.1615 8.70093 42.356 9.01578ZM45.155 10.819C45.8187 12.1336 46.0143 13.0541 45.6292 13.0541C44.303 13.0541 40.8832 18.2231 40.2462 21.1899C39.8055 23.2417 39.4154 23.6886 38.5472 23.1364C38.3154 22.9887 39.3441 20.2348 40.9807 16.6183C42.4228 13.4331 42.7065 12.7872 42.7065 12.6919C42.7065 12.6323 42.9093 12.1386 43.1573 11.5936C43.4058 11.0492 43.704 10.3526 43.821 10.0456C44.142 9.20023 44.4189 9.36072 45.155 10.819ZM57.7811 13.0118C70.5521 17.8158 67.5886 36.1553 54.0297 36.2278C48.206 36.2584 42.6519 31.6433 42.1019 26.3166L41.9737 25.0756L47.5228 25.1609C50.5742 25.2082 53.3984 25.3236 53.7979 25.4172C55.4724 25.81 55.7845 23.5226 54.1289 22.9882C53.7182 22.8561 53.5538 22.6003 51.9556 19.609C51.4045 18.5787 50.4945 16.8752 49.9328 15.8248C48.6255 13.3785 48.6651 13.3138 51.9568 12.5153C52.9515 12.2745 56.661 12.5905 57.7811 13.0118ZM18.1481 13.4175C19.2721 13.817 19.729 14.547 19.0988 14.9371C18.9868 15.0062 18.6736 15.5205 18.4028 16.0794C16.9328 19.1159 14.7122 22.8433 13.9359 23.5772C12.949 24.51 12.8649 24.8945 13.5068 25.5364C14.2831 26.3127 15.7358 25.5721 15.7358 24.3997C15.7358 23.9065 16.8977 21.6251 19.8399 16.3419C20.8798 14.4751 20.9316 14.4768 22.9176 16.4533C28.7353 22.2431 27.5227 31.48 20.4167 35.4994C10.2213 41.2669 -1.66528 30.5438 3.19501 19.964C5.74051 14.4233 12.5662 11.4348 18.1481 13.4175ZM48.5074 16.8991C49.1544 18.0331 50.1786 19.7924 50.7849 20.8088C52.3496 23.4345 52.5201 23.3275 46.8908 23.2562L42.1492 23.196L42.1593 22.0815C42.1732 20.5006 43.3451 18.2365 45.1294 16.3441C46.9822 14.3787 47.0798 14.3949 48.5074 16.8991Z" fill="white"/>
</svg>
