<svg width="37" height="49" viewBox="0 0 37 49" fill="none" xmlns="http://www.w3.org/2000/svg">
<path d="M10.3543 0.472217C6.19066 1.1003 2.80328 2.21688 1.3213 3.43814C-0.266535 4.76409 -0.337105 5.32238 0.650881 10.3121C2.06229 17.4652 5.48496 23.432 9.71918 26.1188C10.813 26.7817 11.1306 27.1656 10.9189 27.5494C10.7425 27.8285 10.3896 29.0149 10.1073 30.1315C9.82504 31.283 8.87234 34.9816 7.95492 38.3663C6.08481 45.4147 5.97895 46.4615 7.14336 47.1943C11.0247 49.6019 26.1621 49.6019 29.9023 47.1943C30.9609 46.4964 30.9256 45.31 29.5848 40.425C27.9264 34.1093 26.0915 27.1307 26.0915 26.9911C26.0915 26.9213 26.6561 26.5375 27.3265 26.1188C27.9969 25.7 28.4556 25.1766 28.3498 25.0022C28.2086 24.7928 28.2792 24.723 28.4909 24.8277C29.1613 25.2464 32.09 21.5128 33.6779 18.3027C35.301 14.9529 36.536 10.661 36.8888 6.99726C37.1005 5.00834 37.0652 4.72919 36.289 3.89176C35.301 2.84496 33.2897 1.90284 32.7251 2.25177C32.5134 2.39135 32.4429 2.35645 32.5487 2.14709C32.831 1.72838 29.4436 0.82115 25.5623 0.297751C22.1749 -0.155861 13.8476 -0.0860748 10.3543 0.472217ZM26.7267 1.37944C28.1734 1.5888 29.9023 1.97263 30.608 2.21688C31.8077 2.67049 31.5607 2.6705 28.0322 2.46114C23.0217 2.1471 13.4947 2.1471 8.97819 2.46114C5.30853 2.74028 5.1321 2.46113 8.41363 1.69348C12.7184 0.681577 20.8693 0.576899 26.7267 1.37944ZM18.5052 5.63642C23.551 5.63642 28.7026 5.46195 29.9729 5.28749C33.572 4.6943 33.4661 5.25259 29.7259 6.2645C24.2567 7.76491 12.8243 7.83469 7.74321 6.36918C6.68465 6.05514 5.44967 5.77599 5.06153 5.7411C4.63811 5.7411 4.35583 5.53174 4.46169 5.32238C4.53226 5.07813 5.30853 5.07813 6.96694 5.28749C8.27249 5.46195 13.4594 5.63642 18.5052 5.63642ZM5.3791 6.54364C7.49621 7.20661 8.09606 7.52065 8.09606 8.04405C8.09606 8.49767 7.84907 8.67213 7.21393 8.67213C6.19066 8.67213 2.09758 7.38108 1.60358 6.92747C1.18016 6.50875 1.63887 5.46195 2.16815 5.60153C2.41514 5.67131 3.86184 6.09003 5.3791 6.54364ZM35.3715 6.02024C35.6538 6.753 34.8775 7.24151 32.0194 8.14873C29.2672 9.02107 28.9143 8.98617 28.9143 8.00916C28.9143 7.52066 29.5495 7.13683 31.4902 6.50875C34.56 5.46195 35.1245 5.39217 35.3715 6.02024ZM16.4939 8.74192C16.9527 8.88149 17.2702 9.23042 17.1644 9.47468C17.0585 9.75382 16.1411 9.89339 14.2004 9.89339C11.2717 9.8585 10.072 9.43978 10.4602 8.46277C10.6013 8.07895 11.1659 8.00916 13.1771 8.18363C14.5533 8.3232 16.0352 8.56745 16.4939 8.74192ZM26.3738 8.88149C26.4797 9.50957 26.2327 9.64914 24.8213 9.8585C23.9038 9.96318 22.3866 10.0679 21.4692 10.0679C19.9872 10.0679 19.7402 9.96318 19.7402 9.40489C19.7402 8.70703 19.7755 8.70703 23.798 8.18363C25.7034 7.97427 26.268 8.11384 26.3738 8.88149ZM5.09682 9.54446C6.47294 9.99807 7.84907 10.4168 8.20192 10.4168C9.22519 10.4168 8.87234 10.9751 6.47294 13.0687C3.86184 15.3367 3.79127 15.3367 3.12085 12.1615C2.90914 11.1147 2.66214 9.8934 2.55628 9.43978C2.45043 9.02106 2.41514 8.67213 2.48571 8.67213C2.55628 8.67213 3.75598 9.05596 5.09682 9.54446ZM34.9128 8.8466C34.9128 9.61425 33.7484 14.4993 33.5014 14.7436C33.1839 15.0576 28.5615 11.3589 28.5615 10.8006C28.5615 10.661 29.4083 10.347 30.4316 10.1028C31.4196 9.8585 32.7604 9.47467 33.325 9.19553C34.5247 8.67213 34.9128 8.56745 34.9128 8.8466ZM14.7297 11.5683L17.6584 11.987L15.8235 14.4993C14.8003 15.895 13.8828 17.0465 13.7417 17.0465C13.4947 17.0465 12.1186 14.2202 11.307 12.0568C10.8836 10.9751 10.6013 11.01 14.7297 11.5683ZM25.7387 12.8942C25.0683 14.5691 24.045 16.6976 23.7627 17.0116C23.6921 17.0814 23.304 16.7325 22.8806 16.2091C22.4924 15.7206 21.9984 15.4065 21.7867 15.5112C21.5397 15.6508 21.5044 15.581 21.6456 15.3716C21.8926 14.9529 20.2695 12.5104 19.5638 12.1615C19.3873 12.0917 20.5517 11.8125 22.2102 11.6032C26.9384 10.9751 26.5502 10.8355 25.7387 12.8942ZM10.7072 15.6508C11.2364 16.9069 11.7657 18.1282 11.8716 18.4073C12.048 18.7912 11.7304 18.8261 10.072 18.6167C8.94291 18.512 7.24922 18.1631 6.26123 17.8839L4.53226 17.3605L6.12009 15.9648C7.00222 15.1972 7.70793 14.3946 7.63736 14.1504C7.60207 13.941 7.74321 13.7665 7.99021 13.7317C8.2372 13.7317 8.62534 13.5223 8.87234 13.278C9.4369 12.7197 9.61333 12.964 10.7072 15.6508ZM32.3017 17.4652C31.6313 17.8491 25.8092 18.9656 25.5623 18.7563C25.4564 18.6516 25.8445 17.535 26.3738 16.3138C26.9384 15.0925 27.5029 13.8014 27.6088 13.4525C27.8205 12.8942 28.2086 13.1036 30.2905 15.0227C31.843 16.4184 32.584 17.2908 32.3017 17.4652ZM19.0345 14.1504C19.0345 14.3248 19.8108 15.4414 20.7635 16.6976C22.81 19.3495 22.7394 19.4193 18.6111 19.4541C14.7297 19.489 14.6238 19.3844 16.0352 17.535C16.7057 16.6976 17.5172 15.5112 17.8701 14.9529C18.4346 13.9759 19.0345 13.5921 19.0345 14.1504ZM5.34382 15.1972C5.1321 15.267 5.02625 15.5461 5.1321 15.7206C5.27325 15.9648 5.20268 15.9997 4.95568 15.8601C4.49697 15.5461 4.77925 14.9529 5.3791 14.9878C5.69667 14.9878 5.66138 15.0576 5.34382 15.1972ZM10.2132 20.0473C13.777 21.0592 23.1276 20.9894 27.0442 19.9078C30.5728 18.9656 30.3963 18.9656 30.9609 19.8729C31.2432 20.2916 31.2785 20.5009 31.102 20.3963C30.8903 20.2916 30.6786 20.3614 30.608 20.5707C30.4316 21.129 24.2214 22.5247 20.7635 22.8039C17.6231 23.0481 13.7417 22.6992 9.61333 21.7571C6.68465 21.0941 5.76724 20.5358 6.08481 19.6635C6.36709 19.0005 6.50823 19.0005 10.2132 20.0473ZM12.048 23.3273C15.5765 24.1647 21.328 24.2345 24.6801 23.5018C25.9504 23.2226 27.3971 22.8737 27.9616 22.769C28.7732 22.5945 28.9143 22.6643 28.9143 23.2575C28.9143 24.0949 27.9264 24.4788 23.8333 25.2464C19.3521 26.0839 13.9181 25.7349 9.61333 24.3392C8.83705 24.0949 8.44892 23.746 8.44892 23.2924C8.44892 22.4899 8.44892 22.4899 12.048 23.3273ZM13.5653 28.2821C13.6711 28.7357 14.024 30.7596 14.4121 32.8183C15.0473 36.482 15.0473 36.5867 14.4121 36.5867C13.9887 36.5867 13.6711 36.2378 13.53 35.6097C13.0713 33.4114 12.789 33.2021 12.542 34.7374C12.295 36.1331 11.5893 36.6914 11.1306 35.9238C10.9189 35.5748 12.1186 28.4566 12.5067 27.8634C12.8596 27.2702 13.3536 27.4796 13.5653 28.2821ZM19.3873 27.5843C19.3873 27.6541 19.7049 29.5034 20.093 31.7017C20.9399 36.5518 20.9399 36.9357 20.2695 36.9357C19.6696 36.9357 19.5638 36.6914 19.2109 34.7025C18.9286 33.0974 18.6111 33.3068 18.3641 35.2957C18.1876 36.4472 17.9759 36.7961 17.4114 36.8659L16.6704 36.9706L17.3408 33.0276C18.2229 27.689 18.2582 27.5145 18.8581 27.5145C19.1403 27.5145 19.3873 27.5494 19.3873 27.5843ZM25.3858 27.7587C25.3858 28.1077 26.4091 34.0744 26.6208 35.0514C26.7267 35.5748 26.5855 35.854 26.1268 35.9935C25.5622 36.1331 25.3858 35.9238 25.2094 34.8072C24.9624 33.3765 24.3273 33.2719 24.3273 34.6676C24.3273 35.9586 23.9744 36.5867 23.1981 36.5867C22.7041 36.5867 22.563 36.4123 22.7041 35.9587C22.81 35.6446 23.1276 33.7953 23.4451 31.8761C23.7627 29.957 24.0803 28.1775 24.1508 27.9332C24.3273 27.4796 25.3858 27.34 25.3858 27.7587ZM17.1997 28.7009C17.5172 29.3987 17.4466 29.5732 16.7762 29.8872C15.7882 30.3059 14.8003 29.8174 14.8003 28.9102C14.8003 27.689 16.6351 27.5145 17.1997 28.7009ZM22.8453 28.9451C22.9864 29.9919 22.069 30.5502 21.2927 29.9221C20.7635 29.5034 20.6223 28.4915 21.0457 28.0728C21.6103 27.5145 22.7394 28.0379 22.8453 28.9451ZM27.7146 41.6811C28.1381 44.1586 28.4204 46.2871 28.3498 46.4266C28.1028 46.7756 27.1501 46.7756 27.1501 46.4615C27.1501 46.2871 26.8325 44.333 26.4091 42.065C25.6681 37.9825 25.7034 36.7612 26.515 37.0054C26.7972 37.1101 27.2912 39.0293 27.7146 41.6811ZM11.9774 37.7033C11.9774 38.9944 10.5307 46.1824 10.2132 46.4964C9.29576 47.4036 9.18991 46.0079 9.93089 41.716C10.566 37.9127 10.7777 37.2846 11.3423 37.2846C11.6952 37.2846 11.9774 37.494 11.9774 37.7033ZM23.0923 42.065C22.5277 45.3798 22.2102 46.5662 21.7867 46.636C21.3633 46.7058 21.1163 45.9381 20.587 42.7977C19.7755 38.0174 19.7755 38.1918 20.4812 38.0522C21.081 37.9476 21.4692 38.8548 21.5044 40.425C21.5044 41.1228 21.575 41.1926 21.8573 40.7739C22.0337 40.4948 22.2102 39.762 22.2102 39.1688C22.2102 37.9476 22.4219 37.6335 23.2687 37.6335C23.798 37.6335 23.798 37.9825 23.0923 42.065ZM15.4354 39.2037C15.6118 40.5646 16.2117 41.2275 16.2117 40.0063C16.2117 38.7152 16.5645 37.9825 17.1291 37.9825C17.7642 37.9825 17.7642 38.4361 17.0232 42.9722C16.5292 45.973 16.3175 46.7058 15.8941 46.636C15.4707 46.5662 15.1531 45.4496 14.5885 42.2394L13.8476 37.9476L14.5885 38.0522C15.1178 38.122 15.3648 38.4361 15.4354 39.2037ZM13.777 45.8683C14.3768 46.6011 13.777 47.5781 12.6479 47.5781C11.6952 47.5781 11.3423 46.6011 11.9774 45.8334C12.542 45.1705 13.1771 45.1705 13.777 45.8683ZM25.9151 46.3568C25.9151 46.9849 25.7034 47.2641 25.1035 47.3338C24.2567 47.4734 23.7627 46.7058 24.1156 45.7985C24.2214 45.4845 24.6448 45.31 25.1035 45.3798C25.7034 45.4496 25.9151 45.7288 25.9151 46.3568ZM20.0225 46.7756C20.093 47.4385 19.9519 47.7526 19.4226 47.927C18.4699 48.2062 17.9759 47.8921 17.9759 46.9151C17.9759 45.9032 18.2935 45.5892 19.2109 45.7288C19.6696 45.7985 19.9519 46.1475 20.0225 46.7756Z" fill="white"/>
</svg>
